<?xml version="1.0" standalone="no"?>
<!DOCTYPE svg PUBLIC "-//W3C//DTD SVG 20010904//EN"
 "http://www.w3.org/TR/2001/REC-SVG-20010904/DTD/svg10.dtd">
<svg version="1.0" xmlns="http://www.w3.org/2000/svg"
 width="128.000000pt" height="128.000000pt" viewBox="0 0 128.000000 128.000000"
 preserveAspectRatio="xMidYMid meet">

<g transform="translate(0.000000,128.000000) scale(0.100000,-0.100000)"
fill="#000000" stroke="none" style="fill: #5865f2;">
<path d="M495 1235 c-77 -17 -122 -37 -201 -86 -226 -143 -334 -447 -250 -705
122 -378 566 -548 905 -347 292 173 391 541 226 838 -131 237 -411 360 -680
300z m-40 -344 c74 -33 129 -104 154 -199 16 -57 36 -54 51 7 48 201 253 276
389 143 63 -61 91 -135 91 -235 -1 -145 -40 -239 -144 -343 -111 -111 -241
-161 -391 -151 -214 14 -397 153 -457 350 -28 93 -23 230 11 300 44 91 124
147 211 147 25 0 63 -9 85 -19z"/>
<path d="M345 728 c-49 -28 -60 -87 -24 -132 28 -36 89 -37 124 -1 67 66 -18
180 -100 133z m30 -53 c0 -28 -29 -25 -33 3 -3 19 0 23 15 20 10 -2 18 -12 18
-23z"/>
<path d="M845 728 c-31 -18 -44 -40 -45 -76 0 -75 104 -114 149 -56 31 40 28
87 -10 118 -33 28 -62 32 -94 14z m30 -53 c0 -28 -29 -25 -33 3 -3 19 0 23 15
20 10 -2 18 -12 18 -23z"/>
<path d="M524 555 c-6 -16 51 -108 90 -144 26 -24 30 -22 82 49 54 73 55 76
48 94 -9 23 -212 24 -220 1z"/>
</g>
</svg>
